<?xml version="1.0" encoding="UTF-8" standalone="no"?>
<!DOCTYPE svg PUBLIC "-//W3C//DTD SVG 1.1//EN" "http://www.w3.org/Graphics/SVG/1.1/DTD/svg11.dtd">
<svg width="100%" height="100%" viewBox="0 0 1026 406" version="1.1" xmlns="http://www.w3.org/2000/svg" xmlns:xlink="http://www.w3.org/1999/xlink" xml:space="preserve" xmlns:serif="http://www.serif.com/" style="fill-rule:evenodd;clip-rule:evenodd;stroke-linecap:round;stroke-linejoin:round;stroke-miterlimit:1.5;">
    <g transform="matrix(1,0,0,1,-127.164,-235)">
        <g transform="matrix(0.778182,0,0,0.778182,122.509,47.68)">
            <path d="M1190,262L690,262L690,762L1190,762L1190,262ZM935,752L935,517L700,517L700,752L935,752ZM1180,517L945,517L945,752L1180,752L1180,517ZM945,272L945,507L1180,507L1180,272L945,272ZM700,272L700,507L935,507L935,272L700,272Z" style="fill:rgb(235,246,71);"/>
        </g>
        <g transform="matrix(0.778182,0,0,0.778182,550.509,47.68)">
            <rect x="150" y="272" width="235" height="235" style="fill:rgb(255,105,208);"/>
        </g>
        <g transform="matrix(0.778182,0,0,0.778182,741.164,47.68)">
            <rect x="150" y="272" width="235" height="235" style="fill:rgb(255,105,208);"/>
        </g>
        <g transform="matrix(0.778182,0,0,0.778182,741.164,238.335)">
            <rect x="150" y="272" width="235" height="235" style="fill:rgb(255,105,208);"/>
        </g>
        <g transform="matrix(0.778182,0,0,0.778182,550.509,238.335)">
            <rect x="150" y="272" width="235" height="235" style="fill:rgb(255,105,208);"/>
        </g>
        <g transform="matrix(0.549305,0,0,0.741126,605.989,484.277)">
            <rect x="409" y="85" width="85" height="63" style="fill:rgb(255,105,208);stroke:rgb(235,246,71);stroke-width:3.07px;"/>
        </g>
        <g transform="matrix(0.778182,0,-1.34286e-31,0.778182,429.2,-69.9692)">
            <g transform="matrix(12,0,0,12,525.512,827.649)">
                <path d="M0.231,-0.751C0.137,-0.751 0.061,-0.675 0.061,-0.581L0.061,-0L0.142,-0C0.149,-0 0.155,-0.006 0.155,-0.013L0.155,-0.333L0.532,-0.333C0.539,-0.333 0.545,-0.339 0.545,-0.346L0.545,-0.419L0.205,-0.419C0.184,-0.419 0.165,-0.41 0.155,-0.397L0.155,-0.589C0.155,-0.631 0.189,-0.665 0.231,-0.665L0.555,-0.665C0.562,-0.665 0.568,-0.671 0.568,-0.678L0.568,-0.751L0.231,-0.751Z" style="fill:white;fill-rule:nonzero;"/>
            </g>
            <g transform="matrix(12,0,0,12,532.616,827.649)">
                <path d="M0.136,-0.75L0.06,-0.75L0.06,-0.011C0.06,-0.005 0.065,-0 0.071,-0L0.147,-0L0.147,-0.739C0.147,-0.745 0.142,-0.75 0.136,-0.75Z" style="fill:white;fill-rule:nonzero;"/>
            </g>
            <g transform="matrix(12,0,0,12,535.16,827.649)">
                <path d="M0.204,0.007L0.336,0.007C0.417,0.007 0.483,-0.058 0.483,-0.139L0.483,-0.361C0.483,-0.441 0.417,-0.507 0.336,-0.507L0.204,-0.507C0.123,-0.507 0.058,-0.441 0.058,-0.361L0.058,-0.139C0.058,-0.058 0.123,0.007 0.204,0.007ZM0.204,-0.424L0.336,-0.424C0.369,-0.424 0.396,-0.397 0.396,-0.365L0.396,-0.135C0.396,-0.102 0.369,-0.075 0.336,-0.075L0.204,-0.075C0.171,-0.075 0.145,-0.102 0.145,-0.135L0.145,-0.365C0.145,-0.397 0.171,-0.424 0.204,-0.424Z" style="fill:white;fill-rule:nonzero;"/>
            </g>
            <g transform="matrix(12,0,0,12,541.688,827.649)">
                <path d="M0.204,0.007L0.336,0.007C0.417,0.007 0.483,-0.058 0.483,-0.139L0.483,-0.361C0.483,-0.441 0.417,-0.507 0.336,-0.507L0.204,-0.507C0.123,-0.507 0.058,-0.441 0.058,-0.361L0.058,-0.139C0.058,-0.058 0.123,0.007 0.204,0.007ZM0.204,-0.424L0.336,-0.424C0.369,-0.424 0.396,-0.397 0.396,-0.365L0.396,-0.135C0.396,-0.102 0.369,-0.075 0.336,-0.075L0.204,-0.075C0.171,-0.075 0.145,-0.102 0.145,-0.135L0.145,-0.365C0.145,-0.397 0.171,-0.424 0.204,-0.424Z" style="fill:white;fill-rule:nonzero;"/>
            </g>
            <g transform="matrix(12,0,0,12,548.216,827.649)">
                <path d="M0.052,-0.354L0.052,-0.146C0.052,-0.065 0.117,-0 0.198,-0L0.436,-0C0.454,-0 0.468,-0.014 0.468,-0.032L0.468,-0.75L0.392,-0.75C0.386,-0.75 0.381,-0.745 0.381,-0.739L0.381,-0.468C0.369,-0.485 0.344,-0.5 0.312,-0.5L0.196,-0.5C0.115,-0.5 0.052,-0.435 0.052,-0.354ZM0.139,-0.142L0.139,-0.358C0.139,-0.391 0.165,-0.417 0.198,-0.417L0.333,-0.417C0.358,-0.414 0.379,-0.393 0.381,-0.366L0.381,-0.093C0.381,-0.087 0.376,-0.083 0.37,-0.083L0.198,-0.083C0.165,-0.083 0.139,-0.109 0.139,-0.142Z" style="fill:white;fill-rule:nonzero;"/>
            </g>
            <g transform="matrix(12,0,0,12,559.112,827.649)">
                <path d="M0.487,-0.665C0.494,-0.665 0.5,-0.671 0.5,-0.678L0.5,-0.751L0.076,-0.751C0.069,-0.751 0.063,-0.746 0.063,-0.738L0.063,-0.442C0.063,-0.41 0.089,-0.384 0.121,-0.384L0.365,-0.384C0.407,-0.384 0.441,-0.349 0.441,-0.307L0.441,-0.162C0.441,-0.12 0.407,-0.086 0.365,-0.086L0.077,-0.086C0.07,-0.086 0.064,-0.08 0.064,-0.073L0.064,-0L0.365,-0C0.458,-0 0.535,-0.062 0.535,-0.162L0.535,-0.308C0.535,-0.411 0.458,-0.47 0.365,-0.47L0.162,-0.47C0.155,-0.47 0.149,-0.475 0.149,-0.483L0.149,-0.665L0.487,-0.665Z" style="fill:white;fill-rule:nonzero;"/>
            </g>
        </g>
        <g transform="matrix(0.549305,0,0,0.741126,605.989,235.259)">
            <rect x="409" y="85" width="85" height="63" style="fill:rgb(255,105,208);stroke:rgb(235,246,71);stroke-width:3.07px;"/>
        </g>
        <g transform="matrix(0.778182,0,-1.34286e-31,0.778182,429.032,-318.983)">
            <g transform="matrix(12,0,0,12,525.512,827.649)">
                <path d="M0.231,-0.751C0.137,-0.751 0.061,-0.675 0.061,-0.581L0.061,-0L0.142,-0C0.149,-0 0.155,-0.006 0.155,-0.013L0.155,-0.333L0.532,-0.333C0.539,-0.333 0.545,-0.339 0.545,-0.346L0.545,-0.419L0.205,-0.419C0.184,-0.419 0.165,-0.41 0.155,-0.397L0.155,-0.589C0.155,-0.631 0.189,-0.665 0.231,-0.665L0.555,-0.665C0.562,-0.665 0.568,-0.671 0.568,-0.678L0.568,-0.751L0.231,-0.751Z" style="fill:white;fill-rule:nonzero;"/>
            </g>
            <g transform="matrix(12,0,0,12,532.616,827.649)">
                <path d="M0.136,-0.75L0.06,-0.75L0.06,-0.011C0.06,-0.005 0.065,-0 0.071,-0L0.147,-0L0.147,-0.739C0.147,-0.745 0.142,-0.75 0.136,-0.75Z" style="fill:white;fill-rule:nonzero;"/>
            </g>
            <g transform="matrix(12,0,0,12,535.16,827.649)">
                <path d="M0.204,0.007L0.336,0.007C0.417,0.007 0.483,-0.058 0.483,-0.139L0.483,-0.361C0.483,-0.441 0.417,-0.507 0.336,-0.507L0.204,-0.507C0.123,-0.507 0.058,-0.441 0.058,-0.361L0.058,-0.139C0.058,-0.058 0.123,0.007 0.204,0.007ZM0.204,-0.424L0.336,-0.424C0.369,-0.424 0.396,-0.397 0.396,-0.365L0.396,-0.135C0.396,-0.102 0.369,-0.075 0.336,-0.075L0.204,-0.075C0.171,-0.075 0.145,-0.102 0.145,-0.135L0.145,-0.365C0.145,-0.397 0.171,-0.424 0.204,-0.424Z" style="fill:white;fill-rule:nonzero;"/>
            </g>
            <g transform="matrix(12,0,0,12,541.688,827.649)">
                <path d="M0.204,0.007L0.336,0.007C0.417,0.007 0.483,-0.058 0.483,-0.139L0.483,-0.361C0.483,-0.441 0.417,-0.507 0.336,-0.507L0.204,-0.507C0.123,-0.507 0.058,-0.441 0.058,-0.361L0.058,-0.139C0.058,-0.058 0.123,0.007 0.204,0.007ZM0.204,-0.424L0.336,-0.424C0.369,-0.424 0.396,-0.397 0.396,-0.365L0.396,-0.135C0.396,-0.102 0.369,-0.075 0.336,-0.075L0.204,-0.075C0.171,-0.075 0.145,-0.102 0.145,-0.135L0.145,-0.365C0.145,-0.397 0.171,-0.424 0.204,-0.424Z" style="fill:white;fill-rule:nonzero;"/>
            </g>
            <g transform="matrix(12,0,0,12,548.216,827.649)">
                <path d="M0.052,-0.354L0.052,-0.146C0.052,-0.065 0.117,-0 0.198,-0L0.436,-0C0.454,-0 0.468,-0.014 0.468,-0.032L0.468,-0.75L0.392,-0.75C0.386,-0.75 0.381,-0.745 0.381,-0.739L0.381,-0.468C0.369,-0.485 0.344,-0.5 0.312,-0.5L0.196,-0.5C0.115,-0.5 0.052,-0.435 0.052,-0.354ZM0.139,-0.142L0.139,-0.358C0.139,-0.391 0.165,-0.417 0.198,-0.417L0.333,-0.417C0.358,-0.414 0.379,-0.393 0.381,-0.366L0.381,-0.093C0.381,-0.087 0.376,-0.083 0.37,-0.083L0.198,-0.083C0.165,-0.083 0.139,-0.109 0.139,-0.142Z" style="fill:white;fill-rule:nonzero;"/>
            </g>
            <g transform="matrix(12,0,0,12,559.112,827.649)">
                <path d="M0.407,-0.447L0.2,-0.447C0.185,-0.447 0.171,-0.439 0.163,-0.426L0.163,-0.589C0.163,-0.631 0.197,-0.666 0.239,-0.666L0.518,-0.666C0.525,-0.666 0.531,-0.671 0.531,-0.679L0.531,-0.752L0.239,-0.752C0.145,-0.752 0.071,-0.675 0.071,-0.581L0.071,-0.158C0.071,-0.064 0.145,-0 0.239,-0L0.407,-0C0.501,-0 0.571,-0.069 0.571,-0.163L0.571,-0.29C0.571,-0.384 0.501,-0.447 0.407,-0.447ZM0.483,-0.162C0.483,-0.12 0.449,-0.086 0.407,-0.086L0.239,-0.086C0.197,-0.086 0.163,-0.12 0.163,-0.162L0.163,-0.348C0.163,-0.355 0.169,-0.361 0.176,-0.361L0.407,-0.361C0.449,-0.361 0.483,-0.327 0.483,-0.285L0.483,-0.162Z" style="fill:white;fill-rule:nonzero;"/>
            </g>
        </g>
        <g transform="matrix(0.549305,0,0,0.741126,796.643,484.277)">
            <rect x="409" y="85" width="85" height="63" style="fill:rgb(255,105,208);stroke:rgb(235,246,71);stroke-width:3.07px;"/>
        </g>
        <g transform="matrix(0.778182,0,-1.34286e-31,0.778182,619.923,-69.9692)">
            <g transform="matrix(12,0,0,12,525.512,827.649)">
                <path d="M0.231,-0.751C0.137,-0.751 0.061,-0.675 0.061,-0.581L0.061,-0L0.142,-0C0.149,-0 0.155,-0.006 0.155,-0.013L0.155,-0.333L0.532,-0.333C0.539,-0.333 0.545,-0.339 0.545,-0.346L0.545,-0.419L0.205,-0.419C0.184,-0.419 0.165,-0.41 0.155,-0.397L0.155,-0.589C0.155,-0.631 0.189,-0.665 0.231,-0.665L0.555,-0.665C0.562,-0.665 0.568,-0.671 0.568,-0.678L0.568,-0.751L0.231,-0.751Z" style="fill:white;fill-rule:nonzero;"/>
            </g>
            <g transform="matrix(12,0,0,12,532.616,827.649)">
                <path d="M0.136,-0.75L0.06,-0.75L0.06,-0.011C0.06,-0.005 0.065,-0 0.071,-0L0.147,-0L0.147,-0.739C0.147,-0.745 0.142,-0.75 0.136,-0.75Z" style="fill:white;fill-rule:nonzero;"/>
            </g>
            <g transform="matrix(12,0,0,12,535.16,827.649)">
                <path d="M0.204,0.007L0.336,0.007C0.417,0.007 0.483,-0.058 0.483,-0.139L0.483,-0.361C0.483,-0.441 0.417,-0.507 0.336,-0.507L0.204,-0.507C0.123,-0.507 0.058,-0.441 0.058,-0.361L0.058,-0.139C0.058,-0.058 0.123,0.007 0.204,0.007ZM0.204,-0.424L0.336,-0.424C0.369,-0.424 0.396,-0.397 0.396,-0.365L0.396,-0.135C0.396,-0.102 0.369,-0.075 0.336,-0.075L0.204,-0.075C0.171,-0.075 0.145,-0.102 0.145,-0.135L0.145,-0.365C0.145,-0.397 0.171,-0.424 0.204,-0.424Z" style="fill:white;fill-rule:nonzero;"/>
            </g>
            <g transform="matrix(12,0,0,12,541.688,827.649)">
                <path d="M0.204,0.007L0.336,0.007C0.417,0.007 0.483,-0.058 0.483,-0.139L0.483,-0.361C0.483,-0.441 0.417,-0.507 0.336,-0.507L0.204,-0.507C0.123,-0.507 0.058,-0.441 0.058,-0.361L0.058,-0.139C0.058,-0.058 0.123,0.007 0.204,0.007ZM0.204,-0.424L0.336,-0.424C0.369,-0.424 0.396,-0.397 0.396,-0.365L0.396,-0.135C0.396,-0.102 0.369,-0.075 0.336,-0.075L0.204,-0.075C0.171,-0.075 0.145,-0.102 0.145,-0.135L0.145,-0.365C0.145,-0.397 0.171,-0.424 0.204,-0.424Z" style="fill:white;fill-rule:nonzero;"/>
            </g>
            <g transform="matrix(12,0,0,12,548.216,827.649)">
                <path d="M0.052,-0.354L0.052,-0.146C0.052,-0.065 0.117,-0 0.198,-0L0.436,-0C0.454,-0 0.468,-0.014 0.468,-0.032L0.468,-0.75L0.392,-0.75C0.386,-0.75 0.381,-0.745 0.381,-0.739L0.381,-0.468C0.369,-0.485 0.344,-0.5 0.312,-0.5L0.196,-0.5C0.115,-0.5 0.052,-0.435 0.052,-0.354ZM0.139,-0.142L0.139,-0.358C0.139,-0.391 0.165,-0.417 0.198,-0.417L0.333,-0.417C0.358,-0.414 0.379,-0.393 0.381,-0.366L0.381,-0.093C0.381,-0.087 0.376,-0.083 0.37,-0.083L0.198,-0.083C0.165,-0.083 0.139,-0.109 0.139,-0.142Z" style="fill:white;fill-rule:nonzero;"/>
            </g>
            <g transform="matrix(12,0,0,12,559.112,827.649)">
                <path d="M0.048,-0.667L0.387,-0.667C0.394,-0.667 0.399,-0.661 0.397,-0.654L0.096,-0L0.18,-0C0.187,-0 0.194,-0.006 0.197,-0.012L0.518,-0.696C0.527,-0.727 0.509,-0.751 0.477,-0.751L0.035,-0.751L0.035,-0.68C0.035,-0.672 0.041,-0.667 0.048,-0.667Z" style="fill:white;fill-rule:nonzero;"/>
            </g>
        </g>
        <g transform="matrix(0.694805,0,0,0.694805,166.699,-43.3117)">
            <circle cx="810" cy="430" r="28" style="fill:rgb(255,105,208);stroke:rgb(235,246,71);stroke-width:2.88px;"/>
        </g>
        <g transform="matrix(0.778182,-1.34286e-31,7.67347e-32,0.778182,306.783,-385.1)">
            <g transform="matrix(12,0,0,12,525.512,827.649)">
                <path d="M0.154,-0.36L0.156,-0.36C0.163,-0.341 0.184,-0.333 0.212,-0.333L0.369,-0.333L0.521,-0.012C0.524,-0.006 0.532,-0 0.539,-0L0.626,-0L0.466,-0.338C0.539,-0.357 0.602,-0.405 0.602,-0.493L0.602,-0.59C0.602,-0.692 0.526,-0.751 0.432,-0.751L0.118,-0.751C0.086,-0.751 0.06,-0.725 0.06,-0.693L0.06,-0L0.141,-0C0.148,-0 0.154,-0.006 0.154,-0.013L0.154,-0.36ZM0.173,-0.419C0.163,-0.419 0.154,-0.427 0.154,-0.438L0.154,-0.646C0.154,-0.656 0.162,-0.665 0.173,-0.665L0.432,-0.665C0.474,-0.665 0.508,-0.631 0.508,-0.589L0.508,-0.495C0.508,-0.453 0.474,-0.419 0.432,-0.419L0.173,-0.419Z" style="fill:white;fill-rule:nonzero;"/>
            </g>
            <g transform="matrix(12,0,0,12,533.264,827.649)">
                <path d="M0.231,0.004L0.438,0.004C0.532,0.004 0.608,-0.05 0.608,-0.156L0.608,-0.412C0.608,-0.419 0.602,-0.425 0.595,-0.425L0.328,-0.425L0.328,-0.352C0.328,-0.345 0.334,-0.339 0.341,-0.339L0.523,-0.339L0.523,-0.158C0.523,-0.116 0.48,-0.082 0.438,-0.082L0.231,-0.082C0.189,-0.082 0.155,-0.116 0.155,-0.158L0.155,-0.593C0.155,-0.635 0.189,-0.669 0.231,-0.669L0.56,-0.669C0.568,-0.669 0.574,-0.675 0.574,-0.682L0.574,-0.755L0.231,-0.755C0.137,-0.755 0.061,-0.679 0.061,-0.585L0.061,-0.166C0.061,-0.072 0.137,0.004 0.231,0.004Z" style="fill:white;fill-rule:nonzero;"/>
            </g>
            <g transform="matrix(12,0,0,12,541.256,827.649)">
                <path d="M0.121,-0L0.439,-0C0.533,-0 0.609,-0.077 0.609,-0.171L0.609,-0.259C0.609,-0.307 0.571,-0.368 0.517,-0.382C0.571,-0.393 0.609,-0.457 0.609,-0.505L0.609,-0.581C0.609,-0.675 0.533,-0.751 0.439,-0.751L0.119,-0.751C0.088,-0.751 0.063,-0.726 0.063,-0.695L0.063,-0.058C0.063,-0.026 0.089,-0 0.121,-0ZM0.157,-0.646C0.157,-0.657 0.165,-0.665 0.176,-0.665L0.439,-0.665C0.481,-0.665 0.515,-0.631 0.515,-0.589L0.515,-0.501C0.515,-0.459 0.481,-0.425 0.439,-0.425L0.157,-0.425L0.157,-0.646ZM0.515,-0.163C0.515,-0.121 0.481,-0.086 0.439,-0.086L0.176,-0.086C0.165,-0.086 0.157,-0.095 0.157,-0.105L0.157,-0.339L0.439,-0.339C0.481,-0.339 0.515,-0.305 0.515,-0.263L0.515,-0.163Z" style="fill:white;fill-rule:nonzero;"/>
            </g>
            <g transform="matrix(12,0,0,12,553.748,827.649)">
                <path d="M0.407,-0.447L0.2,-0.447C0.185,-0.447 0.171,-0.439 0.163,-0.426L0.163,-0.589C0.163,-0.631 0.197,-0.666 0.239,-0.666L0.518,-0.666C0.525,-0.666 0.531,-0.671 0.531,-0.679L0.531,-0.752L0.239,-0.752C0.145,-0.752 0.071,-0.675 0.071,-0.581L0.071,-0.158C0.071,-0.064 0.145,-0 0.239,-0L0.407,-0C0.501,-0 0.571,-0.069 0.571,-0.163L0.571,-0.29C0.571,-0.384 0.501,-0.447 0.407,-0.447ZM0.483,-0.162C0.483,-0.12 0.449,-0.086 0.407,-0.086L0.239,-0.086C0.197,-0.086 0.163,-0.12 0.163,-0.162L0.163,-0.348C0.163,-0.355 0.169,-0.361 0.176,-0.361L0.407,-0.361C0.449,-0.361 0.483,-0.327 0.483,-0.285L0.483,-0.162Z" style="fill:white;fill-rule:nonzero;"/>
            </g>
        </g>
        <g transform="matrix(0.694805,0,0,0.694805,357.353,-43.3117)">
            <circle cx="810" cy="430" r="28" style="fill:rgb(255,105,208);stroke:rgb(235,246,71);stroke-width:2.88px;"/>
        </g>
        <g transform="matrix(0.778182,-1.34286e-31,7.67347e-32,0.778182,497.269,-385.1)">
            <g transform="matrix(12,0,0,12,525.512,827.649)">
                <path d="M0.154,-0.36L0.156,-0.36C0.163,-0.341 0.184,-0.333 0.212,-0.333L0.369,-0.333L0.521,-0.012C0.524,-0.006 0.532,-0 0.539,-0L0.626,-0L0.466,-0.338C0.539,-0.357 0.602,-0.405 0.602,-0.493L0.602,-0.59C0.602,-0.692 0.526,-0.751 0.432,-0.751L0.118,-0.751C0.086,-0.751 0.06,-0.725 0.06,-0.693L0.06,-0L0.141,-0C0.148,-0 0.154,-0.006 0.154,-0.013L0.154,-0.36ZM0.173,-0.419C0.163,-0.419 0.154,-0.427 0.154,-0.438L0.154,-0.646C0.154,-0.656 0.162,-0.665 0.173,-0.665L0.432,-0.665C0.474,-0.665 0.508,-0.631 0.508,-0.589L0.508,-0.495C0.508,-0.453 0.474,-0.419 0.432,-0.419L0.173,-0.419Z" style="fill:white;fill-rule:nonzero;"/>
            </g>
            <g transform="matrix(12,0,0,12,533.264,827.649)">
                <path d="M0.231,0.004L0.438,0.004C0.532,0.004 0.608,-0.05 0.608,-0.156L0.608,-0.412C0.608,-0.419 0.602,-0.425 0.595,-0.425L0.328,-0.425L0.328,-0.352C0.328,-0.345 0.334,-0.339 0.341,-0.339L0.523,-0.339L0.523,-0.158C0.523,-0.116 0.48,-0.082 0.438,-0.082L0.231,-0.082C0.189,-0.082 0.155,-0.116 0.155,-0.158L0.155,-0.593C0.155,-0.635 0.189,-0.669 0.231,-0.669L0.56,-0.669C0.568,-0.669 0.574,-0.675 0.574,-0.682L0.574,-0.755L0.231,-0.755C0.137,-0.755 0.061,-0.679 0.061,-0.585L0.061,-0.166C0.061,-0.072 0.137,0.004 0.231,0.004Z" style="fill:white;fill-rule:nonzero;"/>
            </g>
            <g transform="matrix(12,0,0,12,541.256,827.649)">
                <path d="M0.121,-0L0.439,-0C0.533,-0 0.609,-0.077 0.609,-0.171L0.609,-0.259C0.609,-0.307 0.571,-0.368 0.517,-0.382C0.571,-0.393 0.609,-0.457 0.609,-0.505L0.609,-0.581C0.609,-0.675 0.533,-0.751 0.439,-0.751L0.119,-0.751C0.088,-0.751 0.063,-0.726 0.063,-0.695L0.063,-0.058C0.063,-0.026 0.089,-0 0.121,-0ZM0.157,-0.646C0.157,-0.657 0.165,-0.665 0.176,-0.665L0.439,-0.665C0.481,-0.665 0.515,-0.631 0.515,-0.589L0.515,-0.501C0.515,-0.459 0.481,-0.425 0.439,-0.425L0.157,-0.425L0.157,-0.646ZM0.515,-0.163C0.515,-0.121 0.481,-0.086 0.439,-0.086L0.176,-0.086C0.165,-0.086 0.157,-0.095 0.157,-0.105L0.157,-0.339L0.439,-0.339C0.481,-0.339 0.515,-0.305 0.515,-0.263L0.515,-0.163Z" style="fill:white;fill-rule:nonzero;"/>
            </g>
            <g transform="matrix(12,0,0,12,553.748,827.649)">
                <path d="M0.578,-0.515L0.578,-0.588C0.578,-0.682 0.505,-0.756 0.411,-0.756L0.23,-0.756C0.136,-0.756 0.063,-0.679 0.063,-0.585L0.063,-0.515C0.063,-0.464 0.086,-0.419 0.122,-0.387C0.086,-0.356 0.063,-0.311 0.063,-0.26L0.063,-0.161C0.063,-0.067 0.136,0.004 0.23,0.004L0.411,0.004C0.505,0.004 0.578,-0.067 0.578,-0.161L0.578,-0.26C0.578,-0.311 0.555,-0.356 0.519,-0.387C0.555,-0.419 0.578,-0.464 0.578,-0.515ZM0.154,-0.594C0.154,-0.636 0.188,-0.674 0.23,-0.674L0.411,-0.674C0.453,-0.674 0.487,-0.636 0.487,-0.594L0.487,-0.507C0.487,-0.465 0.453,-0.431 0.411,-0.431L0.23,-0.431C0.188,-0.431 0.154,-0.465 0.154,-0.507L0.154,-0.594ZM0.487,-0.158C0.487,-0.116 0.453,-0.081 0.411,-0.081L0.23,-0.081C0.188,-0.081 0.154,-0.116 0.154,-0.158L0.154,-0.268C0.154,-0.31 0.188,-0.344 0.23,-0.344L0.411,-0.344C0.453,-0.344 0.487,-0.31 0.487,-0.268L0.487,-0.158Z" style="fill:white;fill-rule:nonzero;"/>
            </g>
        </g>
        <g transform="matrix(0.694805,0,0,0.694805,357.353,147.343)">
            <circle cx="810" cy="430" r="28" style="fill:rgb(255,105,208);stroke:rgb(235,246,71);stroke-width:2.88px;"/>
        </g>
        <g transform="matrix(0.778182,-1.34286e-31,7.67347e-32,0.778182,497.269,-194.446)">
            <g transform="matrix(12,0,0,12,525.512,827.649)">
                <path d="M0.154,-0.36L0.156,-0.36C0.163,-0.341 0.184,-0.333 0.212,-0.333L0.369,-0.333L0.521,-0.012C0.524,-0.006 0.532,-0 0.539,-0L0.626,-0L0.466,-0.338C0.539,-0.357 0.602,-0.405 0.602,-0.493L0.602,-0.59C0.602,-0.692 0.526,-0.751 0.432,-0.751L0.118,-0.751C0.086,-0.751 0.06,-0.725 0.06,-0.693L0.06,-0L0.141,-0C0.148,-0 0.154,-0.006 0.154,-0.013L0.154,-0.36ZM0.173,-0.419C0.163,-0.419 0.154,-0.427 0.154,-0.438L0.154,-0.646C0.154,-0.656 0.162,-0.665 0.173,-0.665L0.432,-0.665C0.474,-0.665 0.508,-0.631 0.508,-0.589L0.508,-0.495C0.508,-0.453 0.474,-0.419 0.432,-0.419L0.173,-0.419Z" style="fill:white;fill-rule:nonzero;"/>
            </g>
            <g transform="matrix(12,0,0,12,533.264,827.649)">
                <path d="M0.231,0.004L0.438,0.004C0.532,0.004 0.608,-0.05 0.608,-0.156L0.608,-0.412C0.608,-0.419 0.602,-0.425 0.595,-0.425L0.328,-0.425L0.328,-0.352C0.328,-0.345 0.334,-0.339 0.341,-0.339L0.523,-0.339L0.523,-0.158C0.523,-0.116 0.48,-0.082 0.438,-0.082L0.231,-0.082C0.189,-0.082 0.155,-0.116 0.155,-0.158L0.155,-0.593C0.155,-0.635 0.189,-0.669 0.231,-0.669L0.56,-0.669C0.568,-0.669 0.574,-0.675 0.574,-0.682L0.574,-0.755L0.231,-0.755C0.137,-0.755 0.061,-0.679 0.061,-0.585L0.061,-0.166C0.061,-0.072 0.137,0.004 0.231,0.004Z" style="fill:white;fill-rule:nonzero;"/>
            </g>
            <g transform="matrix(12,0,0,12,541.256,827.649)">
                <path d="M0.121,-0L0.439,-0C0.533,-0 0.609,-0.077 0.609,-0.171L0.609,-0.259C0.609,-0.307 0.571,-0.368 0.517,-0.382C0.571,-0.393 0.609,-0.457 0.609,-0.505L0.609,-0.581C0.609,-0.675 0.533,-0.751 0.439,-0.751L0.119,-0.751C0.088,-0.751 0.063,-0.726 0.063,-0.695L0.063,-0.058C0.063,-0.026 0.089,-0 0.121,-0ZM0.157,-0.646C0.157,-0.657 0.165,-0.665 0.176,-0.665L0.439,-0.665C0.481,-0.665 0.515,-0.631 0.515,-0.589L0.515,-0.501C0.515,-0.459 0.481,-0.425 0.439,-0.425L0.157,-0.425L0.157,-0.646ZM0.515,-0.163C0.515,-0.121 0.481,-0.086 0.439,-0.086L0.176,-0.086C0.165,-0.086 0.157,-0.095 0.157,-0.105L0.157,-0.339L0.439,-0.339C0.481,-0.339 0.515,-0.305 0.515,-0.263L0.515,-0.163Z" style="fill:white;fill-rule:nonzero;"/>
            </g>
            <g transform="matrix(12,0,0,12,553.748,827.649)">
                <path d="M0.048,-0.667L0.387,-0.667C0.394,-0.667 0.399,-0.661 0.397,-0.654L0.096,-0L0.18,-0C0.187,-0 0.194,-0.006 0.197,-0.012L0.518,-0.696C0.527,-0.727 0.509,-0.751 0.477,-0.751L0.035,-0.751L0.035,-0.68C0.035,-0.672 0.041,-0.667 0.048,-0.667Z" style="fill:white;fill-rule:nonzero;"/>
            </g>
        </g>
        <g transform="matrix(0.694805,0,0,0.694805,166.699,147.343)">
            <circle cx="810" cy="430" r="28" style="fill:rgb(255,105,208);stroke:rgb(235,246,71);stroke-width:2.88px;"/>
        </g>
        <g transform="matrix(0.778182,-1.34286e-31,7.67347e-32,0.778182,306.783,-194.446)">
            <g transform="matrix(12,0,0,12,525.512,827.649)">
                <path d="M0.154,-0.36L0.156,-0.36C0.163,-0.341 0.184,-0.333 0.212,-0.333L0.369,-0.333L0.521,-0.012C0.524,-0.006 0.532,-0 0.539,-0L0.626,-0L0.466,-0.338C0.539,-0.357 0.602,-0.405 0.602,-0.493L0.602,-0.59C0.602,-0.692 0.526,-0.751 0.432,-0.751L0.118,-0.751C0.086,-0.751 0.06,-0.725 0.06,-0.693L0.06,-0L0.141,-0C0.148,-0 0.154,-0.006 0.154,-0.013L0.154,-0.36ZM0.173,-0.419C0.163,-0.419 0.154,-0.427 0.154,-0.438L0.154,-0.646C0.154,-0.656 0.162,-0.665 0.173,-0.665L0.432,-0.665C0.474,-0.665 0.508,-0.631 0.508,-0.589L0.508,-0.495C0.508,-0.453 0.474,-0.419 0.432,-0.419L0.173,-0.419Z" style="fill:white;fill-rule:nonzero;"/>
            </g>
            <g transform="matrix(12,0,0,12,533.264,827.649)">
                <path d="M0.231,0.004L0.438,0.004C0.532,0.004 0.608,-0.05 0.608,-0.156L0.608,-0.412C0.608,-0.419 0.602,-0.425 0.595,-0.425L0.328,-0.425L0.328,-0.352C0.328,-0.345 0.334,-0.339 0.341,-0.339L0.523,-0.339L0.523,-0.158C0.523,-0.116 0.48,-0.082 0.438,-0.082L0.231,-0.082C0.189,-0.082 0.155,-0.116 0.155,-0.158L0.155,-0.593C0.155,-0.635 0.189,-0.669 0.231,-0.669L0.56,-0.669C0.568,-0.669 0.574,-0.675 0.574,-0.682L0.574,-0.755L0.231,-0.755C0.137,-0.755 0.061,-0.679 0.061,-0.585L0.061,-0.166C0.061,-0.072 0.137,0.004 0.231,0.004Z" style="fill:white;fill-rule:nonzero;"/>
            </g>
            <g transform="matrix(12,0,0,12,541.256,827.649)">
                <path d="M0.121,-0L0.439,-0C0.533,-0 0.609,-0.077 0.609,-0.171L0.609,-0.259C0.609,-0.307 0.571,-0.368 0.517,-0.382C0.571,-0.393 0.609,-0.457 0.609,-0.505L0.609,-0.581C0.609,-0.675 0.533,-0.751 0.439,-0.751L0.119,-0.751C0.088,-0.751 0.063,-0.726 0.063,-0.695L0.063,-0.058C0.063,-0.026 0.089,-0 0.121,-0ZM0.157,-0.646C0.157,-0.657 0.165,-0.665 0.176,-0.665L0.439,-0.665C0.481,-0.665 0.515,-0.631 0.515,-0.589L0.515,-0.501C0.515,-0.459 0.481,-0.425 0.439,-0.425L0.157,-0.425L0.157,-0.646ZM0.515,-0.163C0.515,-0.121 0.481,-0.086 0.439,-0.086L0.176,-0.086C0.165,-0.086 0.157,-0.095 0.157,-0.105L0.157,-0.339L0.439,-0.339C0.481,-0.339 0.515,-0.305 0.515,-0.263L0.515,-0.163Z" style="fill:white;fill-rule:nonzero;"/>
            </g>
            <g transform="matrix(12,0,0,12,553.748,827.649)">
                <path d="M0.487,-0.665C0.494,-0.665 0.5,-0.671 0.5,-0.678L0.5,-0.751L0.076,-0.751C0.069,-0.751 0.063,-0.746 0.063,-0.738L0.063,-0.442C0.063,-0.41 0.089,-0.384 0.121,-0.384L0.365,-0.384C0.407,-0.384 0.441,-0.349 0.441,-0.307L0.441,-0.162C0.441,-0.12 0.407,-0.086 0.365,-0.086L0.077,-0.086C0.07,-0.086 0.064,-0.08 0.064,-0.073L0.064,-0L0.365,-0C0.458,-0 0.535,-0.062 0.535,-0.162L0.535,-0.308C0.535,-0.411 0.458,-0.47 0.365,-0.47L0.162,-0.47C0.155,-0.47 0.149,-0.475 0.149,-0.483L0.149,-0.665L0.487,-0.665Z" style="fill:white;fill-rule:nonzero;"/>
            </g>
        </g>
        <g transform="matrix(2.97812e-17,-0.486364,0.525799,3.21959e-17,473.059,858.059)">
            <rect x="831" y="558" width="32" height="74" style="fill:rgb(255,105,208);stroke:rgb(235,246,71);stroke-width:3.95px;"/>
        </g>
        <g transform="matrix(0.778182,0,0,0.778182,130.291,47.68)">
            <ellipse cx="840.648" cy="512" rx="5.02" ry="5" style="fill:rgb(255,105,208);stroke:rgb(235,246,71);stroke-width:2.57px;"/>
        </g>
        <g transform="matrix(0.387504,0,0,0.387504,468.051,247.707)">
            <ellipse cx="840.648" cy="512" rx="5.02" ry="5" style="fill:rgb(255,105,208);stroke:rgb(235,246,71);stroke-width:5.16px;"/>
        </g>
        <g transform="matrix(0.778182,-1.34286e-31,7.67347e-32,0.778182,361.352,-178.498)">
            <g transform="matrix(12,0,0,12,525.512,827.649)">
                <path d="M0.12,-0L0.441,-0C0.535,-0 0.611,-0.077 0.611,-0.17L0.611,-0.581C0.611,-0.675 0.535,-0.751 0.441,-0.751L0.12,-0.751C0.088,-0.751 0.062,-0.725 0.062,-0.693L0.062,-0.058C0.062,-0.026 0.088,-0 0.12,-0ZM0.441,-0.086L0.175,-0.086C0.164,-0.086 0.156,-0.095 0.156,-0.105L0.156,-0.646C0.156,-0.657 0.164,-0.665 0.175,-0.665L0.441,-0.665C0.483,-0.665 0.517,-0.631 0.517,-0.589L0.517,-0.162C0.517,-0.12 0.483,-0.086 0.441,-0.086Z" style="fill:white;fill-rule:nonzero;"/>
            </g>
            <g transform="matrix(12,0,0,12,533.552,827.649)">
                <path d="M0.139,-0.724L0.063,-0.724L0.063,-0.642C0.063,-0.636 0.068,-0.631 0.074,-0.631L0.15,-0.631L0.15,-0.713C0.15,-0.719 0.145,-0.724 0.139,-0.724ZM0.139,-0.5L0.063,-0.5L0.063,-0.011C0.063,-0.005 0.068,-0 0.074,-0L0.15,-0L0.15,-0.49C0.15,-0.496 0.145,-0.5 0.139,-0.5Z" style="fill:white;fill-rule:nonzero;"/>
            </g>
            <g transform="matrix(12,0,0,12,536.144,827.649)">
                <path d="M0.52,-0.5L0.127,-0.5C0.091,-0.5 0.062,-0.471 0.062,-0.435L0.062,-0L0.138,-0C0.144,-0 0.149,-0.005 0.149,-0.011L0.149,-0.409C0.15,-0.414 0.154,-0.418 0.159,-0.418L0.31,-0.418C0.316,-0.418 0.321,-0.413 0.321,-0.407L0.321,-0.011C0.321,-0.005 0.326,-0 0.332,-0L0.408,-0L0.408,-0.39C0.408,-0.402 0.4,-0.412 0.39,-0.418L0.52,-0.418C0.553,-0.418 0.579,-0.391 0.579,-0.359L0.579,-0.011C0.579,-0.005 0.584,-0 0.59,-0L0.666,-0L0.666,-0.354C0.666,-0.435 0.601,-0.5 0.52,-0.5Z" style="fill:white;fill-rule:nonzero;"/>
            </g>
            <g transform="matrix(12,0,0,12,544.844,827.649)">
                <path d="M0.52,-0.5L0.127,-0.5C0.091,-0.5 0.062,-0.471 0.062,-0.435L0.062,-0L0.138,-0C0.144,-0 0.149,-0.005 0.149,-0.011L0.149,-0.409C0.15,-0.414 0.154,-0.418 0.159,-0.418L0.31,-0.418C0.316,-0.418 0.321,-0.413 0.321,-0.407L0.321,-0.011C0.321,-0.005 0.326,-0 0.332,-0L0.408,-0L0.408,-0.39C0.408,-0.402 0.4,-0.412 0.39,-0.418L0.52,-0.418C0.553,-0.418 0.579,-0.391 0.579,-0.359L0.579,-0.011C0.579,-0.005 0.584,-0 0.59,-0L0.666,-0L0.666,-0.354C0.666,-0.435 0.601,-0.5 0.52,-0.5Z" style="fill:white;fill-rule:nonzero;"/>
            </g>
            <g transform="matrix(12,0,0,12,558.092,827.649)">
                <path d="M0.231,-0.305L0.438,-0.305C0.453,-0.305 0.467,-0.313 0.475,-0.326L0.475,-0.163C0.475,-0.121 0.441,-0.086 0.399,-0.086L0.1,-0.086C0.093,-0.086 0.087,-0.081 0.087,-0.073L0.087,-0L0.399,-0C0.493,-0 0.567,-0.077 0.567,-0.171L0.567,-0.594C0.567,-0.688 0.493,-0.752 0.399,-0.752L0.231,-0.752C0.137,-0.752 0.067,-0.683 0.067,-0.589L0.067,-0.462C0.067,-0.368 0.137,-0.305 0.231,-0.305ZM0.155,-0.467L0.155,-0.59C0.155,-0.632 0.189,-0.666 0.231,-0.666L0.399,-0.666C0.441,-0.666 0.475,-0.632 0.475,-0.59L0.475,-0.404C0.475,-0.397 0.469,-0.391 0.462,-0.391L0.231,-0.391C0.189,-0.391 0.155,-0.425 0.155,-0.467Z" style="fill:white;fill-rule:nonzero;"/>
            </g>
        </g>
        <g transform="matrix(0.778182,-1.34286e-31,7.67347e-32,0.778182,363.943,-210.394)">
            <g transform="matrix(12,0,0,12,525.512,827.649)">
                <path d="M0.496,-0.353C0.55,-0.381 0.587,-0.438 0.587,-0.503L0.587,-0.751L0.506,-0.751C0.498,-0.751 0.492,-0.745 0.492,-0.738L0.492,-0.495C0.492,-0.453 0.458,-0.419 0.416,-0.419L0.205,-0.419C0.184,-0.419 0.165,-0.41 0.155,-0.398L0.155,-0.751L0.074,-0.751C0.067,-0.751 0.061,-0.745 0.061,-0.738L0.061,-0L0.142,-0C0.149,-0 0.155,-0.006 0.155,-0.013L0.155,-0.314C0.155,-0.324 0.164,-0.333 0.174,-0.333L0.402,-0.333L0.544,-0.012C0.547,-0.006 0.556,-0 0.563,-0L0.653,-0L0.496,-0.353Z" style="fill:rgb(235,246,71);fill-rule:nonzero;"/>
            </g>
            <g transform="matrix(12,0,0,12,533.54,827.649)">
                <path d="M0.139,-0.724L0.063,-0.724L0.063,-0.642C0.063,-0.636 0.068,-0.631 0.074,-0.631L0.15,-0.631L0.15,-0.713C0.15,-0.719 0.145,-0.724 0.139,-0.724ZM0.139,-0.5L0.063,-0.5L0.063,-0.011C0.063,-0.005 0.068,-0 0.074,-0L0.15,-0L0.15,-0.49C0.15,-0.496 0.145,-0.5 0.139,-0.5Z" style="fill:rgb(235,246,71);fill-rule:nonzero;"/>
            </g>
            <g transform="matrix(12,0,0,12,536.132,827.649)">
                <path d="M0.339,-0.5L0.125,-0.5C0.089,-0.5 0.06,-0.471 0.06,-0.435L0.06,-0L0.136,-0C0.142,-0 0.147,-0.005 0.147,-0.011L0.147,-0.407C0.147,-0.413 0.152,-0.418 0.158,-0.418L0.339,-0.418C0.372,-0.418 0.398,-0.391 0.398,-0.359L0.398,-0.011C0.398,-0.005 0.403,-0 0.409,-0L0.485,-0L0.485,-0.354C0.485,-0.435 0.42,-0.5 0.339,-0.5Z" style="fill:rgb(235,246,71);fill-rule:nonzero;"/>
            </g>
            <g transform="matrix(12,0,0,12,542.708,827.649)">
                <path d="M0.206,-0L0.465,-0L0.465,-0.072C0.465,-0.078 0.46,-0.083 0.454,-0.083L0.206,-0.083C0.173,-0.083 0.147,-0.109 0.147,-0.142L0.147,-0.231C0.156,-0.219 0.17,-0.212 0.186,-0.212L0.46,-0.212C0.484,-0.212 0.486,-0.226 0.486,-0.243L0.486,-0.358C0.486,-0.451 0.421,-0.5 0.34,-0.5L0.206,-0.5C0.125,-0.5 0.06,-0.451 0.06,-0.358L0.06,-0.146C0.06,-0.065 0.125,-0 0.206,-0ZM0.206,-0.418L0.343,-0.418C0.382,-0.418 0.401,-0.399 0.401,-0.359L0.401,-0.305C0.401,-0.299 0.396,-0.294 0.39,-0.294L0.157,-0.294C0.151,-0.295 0.147,-0.299 0.147,-0.305L0.147,-0.359C0.147,-0.399 0.173,-0.418 0.206,-0.418Z" style="fill:rgb(235,246,71);fill-rule:nonzero;"/>
            </g>
            <g transform="matrix(12,0,0,12,549.284,827.649)">
                <path d="M0.198,-0.417L0.375,-0.417C0.381,-0.417 0.386,-0.421 0.386,-0.427L0.386,-0.499L0.198,-0.499C0.118,-0.499 0.052,-0.434 0.052,-0.353L0.052,-0.146C0.052,-0.065 0.118,-0 0.198,-0L0.386,-0L0.386,-0.072C0.386,-0.078 0.381,-0.083 0.375,-0.083L0.198,-0.083C0.165,-0.083 0.139,-0.109 0.139,-0.142L0.139,-0.357C0.139,-0.39 0.165,-0.417 0.198,-0.417Z" style="fill:rgb(235,246,71);fill-rule:nonzero;"/>
            </g>
            <g transform="matrix(12,0,0,12,554.552,827.649)">
                <path d="M0.297,-0.083L0.207,-0.083C0.174,-0.083 0.148,-0.109 0.148,-0.142L0.148,-0.417L0.272,-0.417C0.278,-0.417 0.283,-0.421 0.283,-0.427L0.283,-0.499L0.177,-0.499C0.164,-0.499 0.153,-0.492 0.148,-0.481L0.148,-0.731C0.148,-0.737 0.143,-0.742 0.137,-0.742L0.061,-0.742L0.061,-0.146C0.061,-0.065 0.127,-0 0.207,-0L0.308,-0L0.308,-0.072C0.308,-0.078 0.303,-0.083 0.297,-0.083Z" style="fill:rgb(235,246,71);fill-rule:nonzero;"/>
            </g>
        </g>
        <g transform="matrix(-0.778182,9.52998e-17,9.52998e-17,0.778182,1157.49,47.68)">
            <path d="M1190,262L690,262L690,762L1190,762L1190,262ZM935,752L935,517L700,517L700,752L935,752ZM1180,517L945,517L945,752L1180,752L1180,517ZM945,272L945,507L1180,507L1180,272L945,272ZM700,272L700,507L935,507L935,272L700,272Z" style="fill:rgb(235,246,71);"/>
        </g>
        <g transform="matrix(0.778182,0,0,0.778182,122.509,47.68)">
            <rect x="150" y="272" width="235" height="235" style="fill:rgb(255,105,208);"/>
        </g>
        <g transform="matrix(0.778182,0,0,0.778182,313.164,47.68)">
            <rect x="150" y="272" width="235" height="235" style="fill:rgb(255,105,208);"/>
        </g>
        <g transform="matrix(0.778182,0,0,0.778182,313.164,238.335)">
            <rect x="150" y="272" width="235" height="235" style="fill:rgb(255,105,208);"/>
        </g>
        <g transform="matrix(0.778182,0,0,0.778182,122.509,238.335)">
            <rect x="150" y="272" width="235" height="235" style="fill:rgb(255,105,208);"/>
        </g>
        <g transform="matrix(-0.549305,6.72704e-17,9.07617e-17,0.741126,674.011,484.277)">
            <rect x="409" y="85" width="85" height="63" style="fill:rgb(255,105,208);stroke:rgb(235,246,71);stroke-width:3.07px;"/>
        </g>
        <g transform="matrix(0.778182,0,-1.72653e-31,0.778182,1.39465,-69.9599)">
            <g transform="matrix(12,0,0,12,525.512,827.649)">
                <path d="M0.231,-0.751C0.137,-0.751 0.061,-0.675 0.061,-0.581L0.061,-0L0.142,-0C0.149,-0 0.155,-0.006 0.155,-0.013L0.155,-0.333L0.532,-0.333C0.539,-0.333 0.545,-0.339 0.545,-0.346L0.545,-0.419L0.205,-0.419C0.184,-0.419 0.165,-0.41 0.155,-0.397L0.155,-0.589C0.155,-0.631 0.189,-0.665 0.231,-0.665L0.555,-0.665C0.562,-0.665 0.568,-0.671 0.568,-0.678L0.568,-0.751L0.231,-0.751Z" style="fill:white;fill-rule:nonzero;"/>
            </g>
            <g transform="matrix(12,0,0,12,532.616,827.649)">
                <path d="M0.136,-0.75L0.06,-0.75L0.06,-0.011C0.06,-0.005 0.065,-0 0.071,-0L0.147,-0L0.147,-0.739C0.147,-0.745 0.142,-0.75 0.136,-0.75Z" style="fill:white;fill-rule:nonzero;"/>
            </g>
            <g transform="matrix(12,0,0,12,535.16,827.649)">
                <path d="M0.204,0.007L0.336,0.007C0.417,0.007 0.483,-0.058 0.483,-0.139L0.483,-0.361C0.483,-0.441 0.417,-0.507 0.336,-0.507L0.204,-0.507C0.123,-0.507 0.058,-0.441 0.058,-0.361L0.058,-0.139C0.058,-0.058 0.123,0.007 0.204,0.007ZM0.204,-0.424L0.336,-0.424C0.369,-0.424 0.396,-0.397 0.396,-0.365L0.396,-0.135C0.396,-0.102 0.369,-0.075 0.336,-0.075L0.204,-0.075C0.171,-0.075 0.145,-0.102 0.145,-0.135L0.145,-0.365C0.145,-0.397 0.171,-0.424 0.204,-0.424Z" style="fill:white;fill-rule:nonzero;"/>
            </g>
            <g transform="matrix(12,0,0,12,541.688,827.649)">
                <path d="M0.204,0.007L0.336,0.007C0.417,0.007 0.483,-0.058 0.483,-0.139L0.483,-0.361C0.483,-0.441 0.417,-0.507 0.336,-0.507L0.204,-0.507C0.123,-0.507 0.058,-0.441 0.058,-0.361L0.058,-0.139C0.058,-0.058 0.123,0.007 0.204,0.007ZM0.204,-0.424L0.336,-0.424C0.369,-0.424 0.396,-0.397 0.396,-0.365L0.396,-0.135C0.396,-0.102 0.369,-0.075 0.336,-0.075L0.204,-0.075C0.171,-0.075 0.145,-0.102 0.145,-0.135L0.145,-0.365C0.145,-0.397 0.171,-0.424 0.204,-0.424Z" style="fill:white;fill-rule:nonzero;"/>
            </g>
            <g transform="matrix(12,0,0,12,548.216,827.649)">
                <path d="M0.052,-0.354L0.052,-0.146C0.052,-0.065 0.117,-0 0.198,-0L0.436,-0C0.454,-0 0.468,-0.014 0.468,-0.032L0.468,-0.75L0.392,-0.75C0.386,-0.75 0.381,-0.745 0.381,-0.739L0.381,-0.468C0.369,-0.485 0.344,-0.5 0.312,-0.5L0.196,-0.5C0.115,-0.5 0.052,-0.435 0.052,-0.354ZM0.139,-0.142L0.139,-0.358C0.139,-0.391 0.165,-0.417 0.198,-0.417L0.333,-0.417C0.358,-0.414 0.379,-0.393 0.381,-0.366L0.381,-0.093C0.381,-0.087 0.376,-0.083 0.37,-0.083L0.198,-0.083C0.165,-0.083 0.139,-0.109 0.139,-0.142Z" style="fill:white;fill-rule:nonzero;"/>
            </g>
            <g transform="matrix(12,0,0,12,559.112,827.649)">
                <path d="M0.493,-0.455L0.493,-0.602C0.493,-0.696 0.421,-0.752 0.327,-0.752L0.037,-0.752L0.037,-0.681C0.037,-0.673 0.043,-0.668 0.05,-0.668L0.327,-0.668C0.369,-0.668 0.403,-0.643 0.403,-0.601L0.403,-0.446C0.403,-0.439 0.397,-0.433 0.39,-0.433L0.059,-0.433L0.059,-0.359C0.059,-0.352 0.064,-0.349 0.072,-0.349L0.39,-0.349C0.397,-0.349 0.403,-0.343 0.403,-0.336L0.403,-0.156C0.403,-0.114 0.369,-0.085 0.327,-0.085L0.046,-0.085C0.039,-0.085 0.033,-0.079 0.033,-0.072L0.033,-0L0.327,-0C0.421,-0 0.493,-0.059 0.493,-0.159L0.493,-0.342C0.493,-0.367 0.475,-0.388 0.453,-0.389C0.478,-0.395 0.496,-0.423 0.493,-0.455Z" style="fill:white;fill-rule:nonzero;"/>
            </g>
        </g>
        <g transform="matrix(-0.549305,6.72704e-17,9.07617e-17,0.741126,674.011,235.259)">
            <rect x="409" y="85" width="85" height="63" style="fill:rgb(255,105,208);stroke:rgb(235,246,71);stroke-width:3.07px;"/>
        </g>
        <g transform="matrix(0.778182,0,-1.34286e-31,0.778182,1.09268,-318.983)">
            <g transform="matrix(12,0,0,12,525.512,827.649)">
                <path d="M0.231,-0.751C0.137,-0.751 0.061,-0.675 0.061,-0.581L0.061,-0L0.142,-0C0.149,-0 0.155,-0.006 0.155,-0.013L0.155,-0.333L0.532,-0.333C0.539,-0.333 0.545,-0.339 0.545,-0.346L0.545,-0.419L0.205,-0.419C0.184,-0.419 0.165,-0.41 0.155,-0.397L0.155,-0.589C0.155,-0.631 0.189,-0.665 0.231,-0.665L0.555,-0.665C0.562,-0.665 0.568,-0.671 0.568,-0.678L0.568,-0.751L0.231,-0.751Z" style="fill:white;fill-rule:nonzero;"/>
            </g>
            <g transform="matrix(12,0,0,12,532.616,827.649)">
                <path d="M0.136,-0.75L0.06,-0.75L0.06,-0.011C0.06,-0.005 0.065,-0 0.071,-0L0.147,-0L0.147,-0.739C0.147,-0.745 0.142,-0.75 0.136,-0.75Z" style="fill:white;fill-rule:nonzero;"/>
            </g>
            <g transform="matrix(12,0,0,12,535.16,827.649)">
                <path d="M0.204,0.007L0.336,0.007C0.417,0.007 0.483,-0.058 0.483,-0.139L0.483,-0.361C0.483,-0.441 0.417,-0.507 0.336,-0.507L0.204,-0.507C0.123,-0.507 0.058,-0.441 0.058,-0.361L0.058,-0.139C0.058,-0.058 0.123,0.007 0.204,0.007ZM0.204,-0.424L0.336,-0.424C0.369,-0.424 0.396,-0.397 0.396,-0.365L0.396,-0.135C0.396,-0.102 0.369,-0.075 0.336,-0.075L0.204,-0.075C0.171,-0.075 0.145,-0.102 0.145,-0.135L0.145,-0.365C0.145,-0.397 0.171,-0.424 0.204,-0.424Z" style="fill:white;fill-rule:nonzero;"/>
            </g>
            <g transform="matrix(12,0,0,12,541.688,827.649)">
                <path d="M0.204,0.007L0.336,0.007C0.417,0.007 0.483,-0.058 0.483,-0.139L0.483,-0.361C0.483,-0.441 0.417,-0.507 0.336,-0.507L0.204,-0.507C0.123,-0.507 0.058,-0.441 0.058,-0.361L0.058,-0.139C0.058,-0.058 0.123,0.007 0.204,0.007ZM0.204,-0.424L0.336,-0.424C0.369,-0.424 0.396,-0.397 0.396,-0.365L0.396,-0.135C0.396,-0.102 0.369,-0.075 0.336,-0.075L0.204,-0.075C0.171,-0.075 0.145,-0.102 0.145,-0.135L0.145,-0.365C0.145,-0.397 0.171,-0.424 0.204,-0.424Z" style="fill:white;fill-rule:nonzero;"/>
            </g>
            <g transform="matrix(12,0,0,12,548.216,827.649)">
                <path d="M0.052,-0.354L0.052,-0.146C0.052,-0.065 0.117,-0 0.198,-0L0.436,-0C0.454,-0 0.468,-0.014 0.468,-0.032L0.468,-0.75L0.392,-0.75C0.386,-0.75 0.381,-0.745 0.381,-0.739L0.381,-0.468C0.369,-0.485 0.344,-0.5 0.312,-0.5L0.196,-0.5C0.115,-0.5 0.052,-0.435 0.052,-0.354ZM0.139,-0.142L0.139,-0.358C0.139,-0.391 0.165,-0.417 0.198,-0.417L0.333,-0.417C0.358,-0.414 0.379,-0.393 0.381,-0.366L0.381,-0.093C0.381,-0.087 0.376,-0.083 0.37,-0.083L0.198,-0.083C0.165,-0.083 0.139,-0.109 0.139,-0.142Z" style="fill:white;fill-rule:nonzero;"/>
            </g>
            <g transform="matrix(12,0,0,12,559.112,827.649)">
                <path d="M0.558,-0.226C0.558,-0.234 0.552,-0.239 0.545,-0.239L0.48,-0.239L0.48,-0.738C0.48,-0.745 0.475,-0.751 0.468,-0.751L0.467,-0.752L0.39,-0.752L0.044,-0.297C0.037,-0.288 0.032,-0.273 0.032,-0.263L0.032,-0.21C0.032,-0.178 0.048,-0.156 0.08,-0.156L0.39,-0.156L0.39,-0.013C0.39,-0.006 0.396,-0 0.403,-0L0.48,-0L0.48,-0.156L0.558,-0.156L0.558,-0.226ZM0.39,-0.239L0.14,-0.239C0.13,-0.239 0.126,-0.248 0.126,-0.258L0.126,-0.259C0.126,-0.263 0.128,-0.269 0.131,-0.272L0.39,-0.618L0.39,-0.239Z" style="fill:white;fill-rule:nonzero;"/>
            </g>
        </g>
        <g transform="matrix(-0.549305,6.72704e-17,9.07617e-17,0.741126,483.357,235.259)">
            <rect x="409" y="85" width="85" height="63" style="fill:rgb(255,105,208);stroke:rgb(235,246,71);stroke-width:3.07px;"/>
        </g>
        <g transform="matrix(0.778182,0,-9.59183e-32,0.778182,-189.604,-318.983)">
            <g transform="matrix(12,0,0,12,525.512,827.649)">
                <path d="M0.231,-0.751C0.137,-0.751 0.061,-0.675 0.061,-0.581L0.061,-0L0.142,-0C0.149,-0 0.155,-0.006 0.155,-0.013L0.155,-0.333L0.532,-0.333C0.539,-0.333 0.545,-0.339 0.545,-0.346L0.545,-0.419L0.205,-0.419C0.184,-0.419 0.165,-0.41 0.155,-0.397L0.155,-0.589C0.155,-0.631 0.189,-0.665 0.231,-0.665L0.555,-0.665C0.562,-0.665 0.568,-0.671 0.568,-0.678L0.568,-0.751L0.231,-0.751Z" style="fill:white;fill-rule:nonzero;"/>
            </g>
            <g transform="matrix(12,0,0,12,532.616,827.649)">
                <path d="M0.136,-0.75L0.06,-0.75L0.06,-0.011C0.06,-0.005 0.065,-0 0.071,-0L0.147,-0L0.147,-0.739C0.147,-0.745 0.142,-0.75 0.136,-0.75Z" style="fill:white;fill-rule:nonzero;"/>
            </g>
            <g transform="matrix(12,0,0,12,535.16,827.649)">
                <path d="M0.204,0.007L0.336,0.007C0.417,0.007 0.483,-0.058 0.483,-0.139L0.483,-0.361C0.483,-0.441 0.417,-0.507 0.336,-0.507L0.204,-0.507C0.123,-0.507 0.058,-0.441 0.058,-0.361L0.058,-0.139C0.058,-0.058 0.123,0.007 0.204,0.007ZM0.204,-0.424L0.336,-0.424C0.369,-0.424 0.396,-0.397 0.396,-0.365L0.396,-0.135C0.396,-0.102 0.369,-0.075 0.336,-0.075L0.204,-0.075C0.171,-0.075 0.145,-0.102 0.145,-0.135L0.145,-0.365C0.145,-0.397 0.171,-0.424 0.204,-0.424Z" style="fill:white;fill-rule:nonzero;"/>
            </g>
            <g transform="matrix(12,0,0,12,541.688,827.649)">
                <path d="M0.204,0.007L0.336,0.007C0.417,0.007 0.483,-0.058 0.483,-0.139L0.483,-0.361C0.483,-0.441 0.417,-0.507 0.336,-0.507L0.204,-0.507C0.123,-0.507 0.058,-0.441 0.058,-0.361L0.058,-0.139C0.058,-0.058 0.123,0.007 0.204,0.007ZM0.204,-0.424L0.336,-0.424C0.369,-0.424 0.396,-0.397 0.396,-0.365L0.396,-0.135C0.396,-0.102 0.369,-0.075 0.336,-0.075L0.204,-0.075C0.171,-0.075 0.145,-0.102 0.145,-0.135L0.145,-0.365C0.145,-0.397 0.171,-0.424 0.204,-0.424Z" style="fill:white;fill-rule:nonzero;"/>
            </g>
            <g transform="matrix(12,0,0,12,548.216,827.649)">
                <path d="M0.052,-0.354L0.052,-0.146C0.052,-0.065 0.117,-0 0.198,-0L0.436,-0C0.454,-0 0.468,-0.014 0.468,-0.032L0.468,-0.75L0.392,-0.75C0.386,-0.75 0.381,-0.745 0.381,-0.739L0.381,-0.468C0.369,-0.485 0.344,-0.5 0.312,-0.5L0.196,-0.5C0.115,-0.5 0.052,-0.435 0.052,-0.354ZM0.139,-0.142L0.139,-0.358C0.139,-0.391 0.165,-0.417 0.198,-0.417L0.333,-0.417C0.358,-0.414 0.379,-0.393 0.381,-0.366L0.381,-0.093C0.381,-0.087 0.376,-0.083 0.37,-0.083L0.198,-0.083C0.165,-0.083 0.139,-0.109 0.139,-0.142Z" style="fill:white;fill-rule:nonzero;"/>
            </g>
            <g transform="matrix(12,0,0,12,559.112,827.649)">
                <path d="M0.142,-0.159C0.142,-0.166 0.147,-0.175 0.153,-0.178L0.503,-0.43C0.531,-0.447 0.553,-0.473 0.553,-0.518L0.553,-0.593C0.553,-0.699 0.476,-0.752 0.382,-0.752L0.071,-0.752L0.071,-0.68C0.071,-0.672 0.077,-0.667 0.084,-0.667L0.382,-0.667C0.424,-0.667 0.459,-0.65 0.459,-0.589L0.459,-0.516C0.459,-0.509 0.454,-0.5 0.447,-0.496L0.101,-0.249C0.073,-0.232 0.051,-0.193 0.051,-0.161L0.051,-0.013C0.051,-0.006 0.057,-0 0.064,-0L0.567,-0L0.567,-0.073C0.567,-0.08 0.561,-0.086 0.554,-0.086L0.142,-0.086L0.142,-0.159Z" style="fill:white;fill-rule:nonzero;"/>
            </g>
        </g>
        <g transform="matrix(-0.549305,6.72704e-17,9.07617e-17,0.741126,483.357,484.277)">
            <rect x="409" y="85" width="85" height="63" style="fill:rgb(255,105,208);stroke:rgb(235,246,71);stroke-width:3.07px;"/>
        </g>
        <g transform="matrix(0.778182,0,-3.83673e-32,0.778182,-187.867,-69.9692)">
            <g transform="matrix(12,0,0,12,525.512,827.649)">
                <path d="M0.231,-0.751C0.137,-0.751 0.061,-0.675 0.061,-0.581L0.061,-0L0.142,-0C0.149,-0 0.155,-0.006 0.155,-0.013L0.155,-0.333L0.532,-0.333C0.539,-0.333 0.545,-0.339 0.545,-0.346L0.545,-0.419L0.205,-0.419C0.184,-0.419 0.165,-0.41 0.155,-0.397L0.155,-0.589C0.155,-0.631 0.189,-0.665 0.231,-0.665L0.555,-0.665C0.562,-0.665 0.568,-0.671 0.568,-0.678L0.568,-0.751L0.231,-0.751Z" style="fill:white;fill-rule:nonzero;"/>
            </g>
            <g transform="matrix(12,0,0,12,532.616,827.649)">
                <path d="M0.136,-0.75L0.06,-0.75L0.06,-0.011C0.06,-0.005 0.065,-0 0.071,-0L0.147,-0L0.147,-0.739C0.147,-0.745 0.142,-0.75 0.136,-0.75Z" style="fill:white;fill-rule:nonzero;"/>
            </g>
            <g transform="matrix(12,0,0,12,535.16,827.649)">
                <path d="M0.204,0.007L0.336,0.007C0.417,0.007 0.483,-0.058 0.483,-0.139L0.483,-0.361C0.483,-0.441 0.417,-0.507 0.336,-0.507L0.204,-0.507C0.123,-0.507 0.058,-0.441 0.058,-0.361L0.058,-0.139C0.058,-0.058 0.123,0.007 0.204,0.007ZM0.204,-0.424L0.336,-0.424C0.369,-0.424 0.396,-0.397 0.396,-0.365L0.396,-0.135C0.396,-0.102 0.369,-0.075 0.336,-0.075L0.204,-0.075C0.171,-0.075 0.145,-0.102 0.145,-0.135L0.145,-0.365C0.145,-0.397 0.171,-0.424 0.204,-0.424Z" style="fill:white;fill-rule:nonzero;"/>
            </g>
            <g transform="matrix(12,0,0,12,541.688,827.649)">
                <path d="M0.204,0.007L0.336,0.007C0.417,0.007 0.483,-0.058 0.483,-0.139L0.483,-0.361C0.483,-0.441 0.417,-0.507 0.336,-0.507L0.204,-0.507C0.123,-0.507 0.058,-0.441 0.058,-0.361L0.058,-0.139C0.058,-0.058 0.123,0.007 0.204,0.007ZM0.204,-0.424L0.336,-0.424C0.369,-0.424 0.396,-0.397 0.396,-0.365L0.396,-0.135C0.396,-0.102 0.369,-0.075 0.336,-0.075L0.204,-0.075C0.171,-0.075 0.145,-0.102 0.145,-0.135L0.145,-0.365C0.145,-0.397 0.171,-0.424 0.204,-0.424Z" style="fill:white;fill-rule:nonzero;"/>
            </g>
            <g transform="matrix(12,0,0,12,548.216,827.649)">
                <path d="M0.052,-0.354L0.052,-0.146C0.052,-0.065 0.117,-0 0.198,-0L0.436,-0C0.454,-0 0.468,-0.014 0.468,-0.032L0.468,-0.75L0.392,-0.75C0.386,-0.75 0.381,-0.745 0.381,-0.739L0.381,-0.468C0.369,-0.485 0.344,-0.5 0.312,-0.5L0.196,-0.5C0.115,-0.5 0.052,-0.435 0.052,-0.354ZM0.139,-0.142L0.139,-0.358C0.139,-0.391 0.165,-0.417 0.198,-0.417L0.333,-0.417C0.358,-0.414 0.379,-0.393 0.381,-0.366L0.381,-0.093C0.381,-0.087 0.376,-0.083 0.37,-0.083L0.198,-0.083C0.165,-0.083 0.139,-0.109 0.139,-0.142Z" style="fill:white;fill-rule:nonzero;"/>
            </g>
            <g transform="matrix(12,0,0,12,559.112,827.649)">
                <path d="M0.182,-0.751L0.016,-0.751L0.016,-0.679C0.016,-0.671 0.022,-0.666 0.029,-0.666L0.102,-0.666L0.102,-0.013C0.102,-0.006 0.108,-0 0.115,-0L0.195,-0L0.195,-0.738C0.195,-0.746 0.189,-0.751 0.182,-0.751Z" style="fill:white;fill-rule:nonzero;"/>
            </g>
        </g>
        <g transform="matrix(-0.694805,8.50891e-17,8.50891e-17,0.694805,1113.3,-43.3117)">
            <circle cx="810" cy="430" r="28" style="fill:rgb(255,105,208);stroke:rgb(235,246,71);stroke-width:2.88px;"/>
        </g>
        <g transform="matrix(0.778182,-9.59183e-32,5.7551e-32,0.778182,127.652,-385.1)">
            <g transform="matrix(12,0,0,12,525.512,827.649)">
                <path d="M0.154,-0.36L0.156,-0.36C0.163,-0.341 0.184,-0.333 0.212,-0.333L0.369,-0.333L0.521,-0.012C0.524,-0.006 0.532,-0 0.539,-0L0.626,-0L0.466,-0.338C0.539,-0.357 0.602,-0.405 0.602,-0.493L0.602,-0.59C0.602,-0.692 0.526,-0.751 0.432,-0.751L0.118,-0.751C0.086,-0.751 0.06,-0.725 0.06,-0.693L0.06,-0L0.141,-0C0.148,-0 0.154,-0.006 0.154,-0.013L0.154,-0.36ZM0.173,-0.419C0.163,-0.419 0.154,-0.427 0.154,-0.438L0.154,-0.646C0.154,-0.656 0.162,-0.665 0.173,-0.665L0.432,-0.665C0.474,-0.665 0.508,-0.631 0.508,-0.589L0.508,-0.495C0.508,-0.453 0.474,-0.419 0.432,-0.419L0.173,-0.419Z" style="fill:white;fill-rule:nonzero;"/>
            </g>
            <g transform="matrix(12,0,0,12,533.264,827.649)">
                <path d="M0.231,0.004L0.438,0.004C0.532,0.004 0.608,-0.05 0.608,-0.156L0.608,-0.412C0.608,-0.419 0.602,-0.425 0.595,-0.425L0.328,-0.425L0.328,-0.352C0.328,-0.345 0.334,-0.339 0.341,-0.339L0.523,-0.339L0.523,-0.158C0.523,-0.116 0.48,-0.082 0.438,-0.082L0.231,-0.082C0.189,-0.082 0.155,-0.116 0.155,-0.158L0.155,-0.593C0.155,-0.635 0.189,-0.669 0.231,-0.669L0.56,-0.669C0.568,-0.669 0.574,-0.675 0.574,-0.682L0.574,-0.755L0.231,-0.755C0.137,-0.755 0.061,-0.679 0.061,-0.585L0.061,-0.166C0.061,-0.072 0.137,0.004 0.231,0.004Z" style="fill:white;fill-rule:nonzero;"/>
            </g>
            <g transform="matrix(12,0,0,12,541.256,827.649)">
                <path d="M0.121,-0L0.439,-0C0.533,-0 0.609,-0.077 0.609,-0.171L0.609,-0.259C0.609,-0.307 0.571,-0.368 0.517,-0.382C0.571,-0.393 0.609,-0.457 0.609,-0.505L0.609,-0.581C0.609,-0.675 0.533,-0.751 0.439,-0.751L0.119,-0.751C0.088,-0.751 0.063,-0.726 0.063,-0.695L0.063,-0.058C0.063,-0.026 0.089,-0 0.121,-0ZM0.157,-0.646C0.157,-0.657 0.165,-0.665 0.176,-0.665L0.439,-0.665C0.481,-0.665 0.515,-0.631 0.515,-0.589L0.515,-0.501C0.515,-0.459 0.481,-0.425 0.439,-0.425L0.157,-0.425L0.157,-0.646ZM0.515,-0.163C0.515,-0.121 0.481,-0.086 0.439,-0.086L0.176,-0.086C0.165,-0.086 0.157,-0.095 0.157,-0.105L0.157,-0.339L0.439,-0.339C0.481,-0.339 0.515,-0.305 0.515,-0.263L0.515,-0.163Z" style="fill:white;fill-rule:nonzero;"/>
            </g>
            <g transform="matrix(12,0,0,12,553.748,827.649)">
                <path d="M0.558,-0.226C0.558,-0.234 0.552,-0.239 0.545,-0.239L0.48,-0.239L0.48,-0.738C0.48,-0.745 0.475,-0.751 0.468,-0.751L0.467,-0.752L0.39,-0.752L0.044,-0.297C0.037,-0.288 0.032,-0.273 0.032,-0.263L0.032,-0.21C0.032,-0.178 0.048,-0.156 0.08,-0.156L0.39,-0.156L0.39,-0.013C0.39,-0.006 0.396,-0 0.403,-0L0.48,-0L0.48,-0.156L0.558,-0.156L0.558,-0.226ZM0.39,-0.239L0.14,-0.239C0.13,-0.239 0.126,-0.248 0.126,-0.258L0.126,-0.259C0.126,-0.263 0.128,-0.269 0.131,-0.272L0.39,-0.618L0.39,-0.239Z" style="fill:white;fill-rule:nonzero;"/>
            </g>
        </g>
        <g transform="matrix(-0.694805,8.50891e-17,8.50891e-17,0.694805,922.647,-43.3117)">
            <circle cx="810" cy="430" r="28" style="fill:rgb(255,105,208);stroke:rgb(235,246,71);stroke-width:2.88px;"/>
        </g>
        <g transform="matrix(0.778182,-7.67347e-32,3.83673e-32,0.778182,-61.2661,-385.1)">
            <g transform="matrix(12,0,0,12,525.512,827.649)">
                <path d="M0.154,-0.36L0.156,-0.36C0.163,-0.341 0.184,-0.333 0.212,-0.333L0.369,-0.333L0.521,-0.012C0.524,-0.006 0.532,-0 0.539,-0L0.626,-0L0.466,-0.338C0.539,-0.357 0.602,-0.405 0.602,-0.493L0.602,-0.59C0.602,-0.692 0.526,-0.751 0.432,-0.751L0.118,-0.751C0.086,-0.751 0.06,-0.725 0.06,-0.693L0.06,-0L0.141,-0C0.148,-0 0.154,-0.006 0.154,-0.013L0.154,-0.36ZM0.173,-0.419C0.163,-0.419 0.154,-0.427 0.154,-0.438L0.154,-0.646C0.154,-0.656 0.162,-0.665 0.173,-0.665L0.432,-0.665C0.474,-0.665 0.508,-0.631 0.508,-0.589L0.508,-0.495C0.508,-0.453 0.474,-0.419 0.432,-0.419L0.173,-0.419Z" style="fill:white;fill-rule:nonzero;"/>
            </g>
            <g transform="matrix(12,0,0,12,533.264,827.649)">
                <path d="M0.231,0.004L0.438,0.004C0.532,0.004 0.608,-0.05 0.608,-0.156L0.608,-0.412C0.608,-0.419 0.602,-0.425 0.595,-0.425L0.328,-0.425L0.328,-0.352C0.328,-0.345 0.334,-0.339 0.341,-0.339L0.523,-0.339L0.523,-0.158C0.523,-0.116 0.48,-0.082 0.438,-0.082L0.231,-0.082C0.189,-0.082 0.155,-0.116 0.155,-0.158L0.155,-0.593C0.155,-0.635 0.189,-0.669 0.231,-0.669L0.56,-0.669C0.568,-0.669 0.574,-0.675 0.574,-0.682L0.574,-0.755L0.231,-0.755C0.137,-0.755 0.061,-0.679 0.061,-0.585L0.061,-0.166C0.061,-0.072 0.137,0.004 0.231,0.004Z" style="fill:white;fill-rule:nonzero;"/>
            </g>
            <g transform="matrix(12,0,0,12,541.256,827.649)">
                <path d="M0.121,-0L0.439,-0C0.533,-0 0.609,-0.077 0.609,-0.171L0.609,-0.259C0.609,-0.307 0.571,-0.368 0.517,-0.382C0.571,-0.393 0.609,-0.457 0.609,-0.505L0.609,-0.581C0.609,-0.675 0.533,-0.751 0.439,-0.751L0.119,-0.751C0.088,-0.751 0.063,-0.726 0.063,-0.695L0.063,-0.058C0.063,-0.026 0.089,-0 0.121,-0ZM0.157,-0.646C0.157,-0.657 0.165,-0.665 0.176,-0.665L0.439,-0.665C0.481,-0.665 0.515,-0.631 0.515,-0.589L0.515,-0.501C0.515,-0.459 0.481,-0.425 0.439,-0.425L0.157,-0.425L0.157,-0.646ZM0.515,-0.163C0.515,-0.121 0.481,-0.086 0.439,-0.086L0.176,-0.086C0.165,-0.086 0.157,-0.095 0.157,-0.105L0.157,-0.339L0.439,-0.339C0.481,-0.339 0.515,-0.305 0.515,-0.263L0.515,-0.163Z" style="fill:white;fill-rule:nonzero;"/>
            </g>
            <g transform="matrix(12,0,0,12,553.748,827.649)">
                <path d="M0.142,-0.159C0.142,-0.166 0.147,-0.175 0.153,-0.178L0.503,-0.43C0.531,-0.447 0.553,-0.473 0.553,-0.518L0.553,-0.593C0.553,-0.699 0.476,-0.752 0.382,-0.752L0.071,-0.752L0.071,-0.68C0.071,-0.672 0.077,-0.667 0.084,-0.667L0.382,-0.667C0.424,-0.667 0.459,-0.65 0.459,-0.589L0.459,-0.516C0.459,-0.509 0.454,-0.5 0.447,-0.496L0.101,-0.249C0.073,-0.232 0.051,-0.193 0.051,-0.161L0.051,-0.013C0.051,-0.006 0.057,-0 0.064,-0L0.567,-0L0.567,-0.073C0.567,-0.08 0.561,-0.086 0.554,-0.086L0.142,-0.086L0.142,-0.159Z" style="fill:white;fill-rule:nonzero;"/>
            </g>
        </g>
        <g transform="matrix(-0.694805,8.50891e-17,8.50891e-17,0.694805,922.647,147.343)">
            <circle cx="810" cy="430" r="28" style="fill:rgb(255,105,208);stroke:rgb(235,246,71);stroke-width:2.88px;"/>
        </g>
        <g transform="matrix(0.778182,-3.83673e-32,0,0.778182,-61.2661,-194.446)">
            <g transform="matrix(12,0,0,12,525.512,827.649)">
                <path d="M0.154,-0.36L0.156,-0.36C0.163,-0.341 0.184,-0.333 0.212,-0.333L0.369,-0.333L0.521,-0.012C0.524,-0.006 0.532,-0 0.539,-0L0.626,-0L0.466,-0.338C0.539,-0.357 0.602,-0.405 0.602,-0.493L0.602,-0.59C0.602,-0.692 0.526,-0.751 0.432,-0.751L0.118,-0.751C0.086,-0.751 0.06,-0.725 0.06,-0.693L0.06,-0L0.141,-0C0.148,-0 0.154,-0.006 0.154,-0.013L0.154,-0.36ZM0.173,-0.419C0.163,-0.419 0.154,-0.427 0.154,-0.438L0.154,-0.646C0.154,-0.656 0.162,-0.665 0.173,-0.665L0.432,-0.665C0.474,-0.665 0.508,-0.631 0.508,-0.589L0.508,-0.495C0.508,-0.453 0.474,-0.419 0.432,-0.419L0.173,-0.419Z" style="fill:white;fill-rule:nonzero;"/>
            </g>
            <g transform="matrix(12,0,0,12,533.264,827.649)">
                <path d="M0.231,0.004L0.438,0.004C0.532,0.004 0.608,-0.05 0.608,-0.156L0.608,-0.412C0.608,-0.419 0.602,-0.425 0.595,-0.425L0.328,-0.425L0.328,-0.352C0.328,-0.345 0.334,-0.339 0.341,-0.339L0.523,-0.339L0.523,-0.158C0.523,-0.116 0.48,-0.082 0.438,-0.082L0.231,-0.082C0.189,-0.082 0.155,-0.116 0.155,-0.158L0.155,-0.593C0.155,-0.635 0.189,-0.669 0.231,-0.669L0.56,-0.669C0.568,-0.669 0.574,-0.675 0.574,-0.682L0.574,-0.755L0.231,-0.755C0.137,-0.755 0.061,-0.679 0.061,-0.585L0.061,-0.166C0.061,-0.072 0.137,0.004 0.231,0.004Z" style="fill:white;fill-rule:nonzero;"/>
            </g>
            <g transform="matrix(12,0,0,12,541.256,827.649)">
                <path d="M0.121,-0L0.439,-0C0.533,-0 0.609,-0.077 0.609,-0.171L0.609,-0.259C0.609,-0.307 0.571,-0.368 0.517,-0.382C0.571,-0.393 0.609,-0.457 0.609,-0.505L0.609,-0.581C0.609,-0.675 0.533,-0.751 0.439,-0.751L0.119,-0.751C0.088,-0.751 0.063,-0.726 0.063,-0.695L0.063,-0.058C0.063,-0.026 0.089,-0 0.121,-0ZM0.157,-0.646C0.157,-0.657 0.165,-0.665 0.176,-0.665L0.439,-0.665C0.481,-0.665 0.515,-0.631 0.515,-0.589L0.515,-0.501C0.515,-0.459 0.481,-0.425 0.439,-0.425L0.157,-0.425L0.157,-0.646ZM0.515,-0.163C0.515,-0.121 0.481,-0.086 0.439,-0.086L0.176,-0.086C0.165,-0.086 0.157,-0.095 0.157,-0.105L0.157,-0.339L0.439,-0.339C0.481,-0.339 0.515,-0.305 0.515,-0.263L0.515,-0.163Z" style="fill:white;fill-rule:nonzero;"/>
            </g>
            <g transform="matrix(12,0,0,12,553.748,827.649)">
                <path d="M0.182,-0.751L0.016,-0.751L0.016,-0.679C0.016,-0.671 0.022,-0.666 0.029,-0.666L0.102,-0.666L0.102,-0.013C0.102,-0.006 0.108,-0 0.115,-0L0.195,-0L0.195,-0.738C0.195,-0.746 0.189,-0.751 0.182,-0.751Z" style="fill:white;fill-rule:nonzero;"/>
            </g>
        </g>
        <g transform="matrix(-0.694805,8.50891e-17,8.50891e-17,0.694805,1113.3,147.343)">
            <circle cx="810" cy="430" r="28" style="fill:rgb(255,105,208);stroke:rgb(235,246,71);stroke-width:2.88px;"/>
        </g>
        <g transform="matrix(0.778182,-1.34286e-31,7.67347e-32,0.778182,127.694,-194.446)">
            <g transform="matrix(12,0,0,12,525.512,827.649)">
                <path d="M0.154,-0.36L0.156,-0.36C0.163,-0.341 0.184,-0.333 0.212,-0.333L0.369,-0.333L0.521,-0.012C0.524,-0.006 0.532,-0 0.539,-0L0.626,-0L0.466,-0.338C0.539,-0.357 0.602,-0.405 0.602,-0.493L0.602,-0.59C0.602,-0.692 0.526,-0.751 0.432,-0.751L0.118,-0.751C0.086,-0.751 0.06,-0.725 0.06,-0.693L0.06,-0L0.141,-0C0.148,-0 0.154,-0.006 0.154,-0.013L0.154,-0.36ZM0.173,-0.419C0.163,-0.419 0.154,-0.427 0.154,-0.438L0.154,-0.646C0.154,-0.656 0.162,-0.665 0.173,-0.665L0.432,-0.665C0.474,-0.665 0.508,-0.631 0.508,-0.589L0.508,-0.495C0.508,-0.453 0.474,-0.419 0.432,-0.419L0.173,-0.419Z" style="fill:white;fill-rule:nonzero;"/>
            </g>
            <g transform="matrix(12,0,0,12,533.264,827.649)">
                <path d="M0.231,0.004L0.438,0.004C0.532,0.004 0.608,-0.05 0.608,-0.156L0.608,-0.412C0.608,-0.419 0.602,-0.425 0.595,-0.425L0.328,-0.425L0.328,-0.352C0.328,-0.345 0.334,-0.339 0.341,-0.339L0.523,-0.339L0.523,-0.158C0.523,-0.116 0.48,-0.082 0.438,-0.082L0.231,-0.082C0.189,-0.082 0.155,-0.116 0.155,-0.158L0.155,-0.593C0.155,-0.635 0.189,-0.669 0.231,-0.669L0.56,-0.669C0.568,-0.669 0.574,-0.675 0.574,-0.682L0.574,-0.755L0.231,-0.755C0.137,-0.755 0.061,-0.679 0.061,-0.585L0.061,-0.166C0.061,-0.072 0.137,0.004 0.231,0.004Z" style="fill:white;fill-rule:nonzero;"/>
            </g>
            <g transform="matrix(12,0,0,12,541.256,827.649)">
                <path d="M0.121,-0L0.439,-0C0.533,-0 0.609,-0.077 0.609,-0.171L0.609,-0.259C0.609,-0.307 0.571,-0.368 0.517,-0.382C0.571,-0.393 0.609,-0.457 0.609,-0.505L0.609,-0.581C0.609,-0.675 0.533,-0.751 0.439,-0.751L0.119,-0.751C0.088,-0.751 0.063,-0.726 0.063,-0.695L0.063,-0.058C0.063,-0.026 0.089,-0 0.121,-0ZM0.157,-0.646C0.157,-0.657 0.165,-0.665 0.176,-0.665L0.439,-0.665C0.481,-0.665 0.515,-0.631 0.515,-0.589L0.515,-0.501C0.515,-0.459 0.481,-0.425 0.439,-0.425L0.157,-0.425L0.157,-0.646ZM0.515,-0.163C0.515,-0.121 0.481,-0.086 0.439,-0.086L0.176,-0.086C0.165,-0.086 0.157,-0.095 0.157,-0.105L0.157,-0.339L0.439,-0.339C0.481,-0.339 0.515,-0.305 0.515,-0.263L0.515,-0.163Z" style="fill:white;fill-rule:nonzero;"/>
            </g>
            <g transform="matrix(12,0,0,12,553.748,827.649)">
                <path d="M0.493,-0.455L0.493,-0.602C0.493,-0.696 0.421,-0.752 0.327,-0.752L0.037,-0.752L0.037,-0.681C0.037,-0.673 0.043,-0.668 0.05,-0.668L0.327,-0.668C0.369,-0.668 0.403,-0.643 0.403,-0.601L0.403,-0.446C0.403,-0.439 0.397,-0.433 0.39,-0.433L0.059,-0.433L0.059,-0.359C0.059,-0.352 0.064,-0.349 0.072,-0.349L0.39,-0.349C0.397,-0.349 0.403,-0.343 0.403,-0.336L0.403,-0.156C0.403,-0.114 0.369,-0.085 0.327,-0.085L0.046,-0.085C0.039,-0.085 0.033,-0.079 0.033,-0.072L0.033,-0L0.327,-0C0.421,-0 0.493,-0.059 0.493,-0.159L0.493,-0.342C0.493,-0.367 0.475,-0.388 0.453,-0.389C0.478,-0.395 0.496,-0.423 0.493,-0.455Z" style="fill:white;fill-rule:nonzero;"/>
            </g>
        </g>
        <g transform="matrix(4.44089e-16,6.0805,-6.0805,4.44089e-16,4416.46,-80.3322)">
            <g transform="matrix(12,0,0,12,69.2446,545.844)">
                <path d="M0.467,-0.744C0.465,-0.748 0.46,-0.751 0.455,-0.751L0.336,-0.751C0.3,-0.751 0.269,-0.728 0.257,-0.695L0.013,-0L0.095,-0C0.103,-0 0.111,-0.006 0.113,-0.013L0.18,-0.206L0.562,-0.206L0.629,-0.013C0.631,-0.006 0.638,-0 0.647,-0L0.729,-0L0.467,-0.744ZM0.21,-0.292L0.335,-0.652C0.338,-0.66 0.345,-0.665 0.353,-0.665L0.402,-0.665L0.532,-0.292L0.21,-0.292Z" style="fill:rgb(235,246,71);fill-rule:nonzero;"/>
            </g>
            <g transform="matrix(12,0,0,12,78.2086,545.844)">
                <path d="M0.297,-0.083L0.207,-0.083C0.174,-0.083 0.148,-0.109 0.148,-0.142L0.148,-0.417L0.272,-0.417C0.278,-0.417 0.283,-0.421 0.283,-0.427L0.283,-0.499L0.177,-0.499C0.164,-0.499 0.153,-0.492 0.148,-0.481L0.148,-0.731C0.148,-0.737 0.143,-0.742 0.137,-0.742L0.061,-0.742L0.061,-0.146C0.061,-0.065 0.127,-0 0.207,-0L0.308,-0L0.308,-0.072C0.308,-0.078 0.303,-0.083 0.297,-0.083Z" style="fill:rgb(235,246,71);fill-rule:nonzero;"/>
            </g>
            <g transform="matrix(12,0,0,12,82.2646,545.844)">
                <path d="M0.215,-0.5C0.184,-0.5 0.159,-0.485 0.147,-0.468L0.147,-0.49C0.147,-0.496 0.142,-0.5 0.136,-0.5L0.06,-0.5L0.06,-0.011C0.06,-0.005 0.065,-0 0.071,-0L0.147,-0L0.147,-0.372C0.149,-0.396 0.168,-0.417 0.195,-0.417L0.32,-0.417C0.326,-0.417 0.331,-0.422 0.331,-0.428L0.331,-0.5L0.215,-0.5Z" style="fill:rgb(235,246,71);fill-rule:nonzero;"/>
            </g>
            <g transform="matrix(12,0,0,12,86.6086,545.844)">
                <path d="M0.139,-0.724L0.063,-0.724L0.063,-0.642C0.063,-0.636 0.068,-0.631 0.074,-0.631L0.15,-0.631L0.15,-0.713C0.15,-0.719 0.145,-0.724 0.139,-0.724ZM0.139,-0.5L0.063,-0.5L0.063,-0.011C0.063,-0.005 0.068,-0 0.074,-0L0.15,-0L0.15,-0.49C0.15,-0.496 0.145,-0.5 0.139,-0.5Z" style="fill:rgb(235,246,71);fill-rule:nonzero;"/>
            </g>
            <g transform="matrix(12,0,0,12,89.2006,545.844)">
                <path d="M0.061,-0.501L0.061,-0.146C0.061,-0.065 0.126,-0 0.207,-0L0.339,-0C0.42,-0 0.486,-0.065 0.486,-0.146L0.486,-0.501L0.41,-0.501C0.404,-0.501 0.399,-0.496 0.399,-0.49L0.399,-0.142C0.399,-0.109 0.372,-0.083 0.339,-0.083L0.207,-0.083C0.174,-0.083 0.148,-0.109 0.148,-0.142L0.148,-0.49C0.148,-0.496 0.143,-0.501 0.137,-0.501L0.061,-0.501Z" style="fill:rgb(235,246,71);fill-rule:nonzero;"/>
            </g>
            <g transform="matrix(12,0,0,12,95.7646,545.844)">
                <path d="M0.52,-0.5L0.127,-0.5C0.091,-0.5 0.062,-0.471 0.062,-0.435L0.062,-0L0.138,-0C0.144,-0 0.149,-0.005 0.149,-0.011L0.149,-0.409C0.15,-0.414 0.154,-0.418 0.159,-0.418L0.31,-0.418C0.316,-0.418 0.321,-0.413 0.321,-0.407L0.321,-0.011C0.321,-0.005 0.326,-0 0.332,-0L0.408,-0L0.408,-0.39C0.408,-0.402 0.4,-0.412 0.39,-0.418L0.52,-0.418C0.553,-0.418 0.579,-0.391 0.579,-0.359L0.579,-0.011C0.579,-0.005 0.584,-0 0.59,-0L0.666,-0L0.666,-0.354C0.666,-0.435 0.601,-0.5 0.52,-0.5Z" style="fill:rgb(235,246,71);fill-rule:nonzero;"/>
            </g>
        </g>
        <g transform="matrix(3.00557e-16,-6.0805,6.0805,3.00557e-16,-3136.75,974.119)">
            <g transform="matrix(12,0,0,12,66.4366,545.844)">
                <path d="M0.229,0.004L0.455,0.004C0.548,0.004 0.625,-0.072 0.625,-0.166L0.625,-0.585C0.625,-0.679 0.548,-0.755 0.455,-0.755L0.229,-0.755C0.135,-0.755 0.059,-0.679 0.059,-0.585L0.059,-0.166C0.059,-0.072 0.135,0.004 0.229,0.004ZM0.229,-0.669L0.455,-0.669C0.497,-0.669 0.531,-0.635 0.531,-0.593L0.531,-0.158C0.531,-0.116 0.497,-0.082 0.455,-0.082L0.229,-0.082C0.187,-0.082 0.153,-0.116 0.153,-0.158L0.153,-0.593C0.153,-0.635 0.187,-0.669 0.229,-0.669Z" style="fill:rgb(235,246,71);fill-rule:nonzero;"/>
            </g>
            <g transform="matrix(12,0,0,12,74.6566,545.844)">
                <path d="M0.061,-0.501L0.061,-0.146C0.061,-0.065 0.126,-0 0.207,-0L0.339,-0C0.42,-0 0.486,-0.065 0.486,-0.146L0.486,-0.501L0.41,-0.501C0.404,-0.501 0.399,-0.496 0.399,-0.49L0.399,-0.142C0.399,-0.109 0.372,-0.083 0.339,-0.083L0.207,-0.083C0.174,-0.083 0.148,-0.109 0.148,-0.142L0.148,-0.49C0.148,-0.496 0.143,-0.501 0.137,-0.501L0.061,-0.501Z" style="fill:rgb(235,246,71);fill-rule:nonzero;"/>
            </g>
            <g transform="matrix(12,0,0,12,81.2206,545.844)">
                <path d="M0.297,-0.083L0.207,-0.083C0.174,-0.083 0.148,-0.109 0.148,-0.142L0.148,-0.417L0.272,-0.417C0.278,-0.417 0.283,-0.421 0.283,-0.427L0.283,-0.499L0.177,-0.499C0.164,-0.499 0.153,-0.492 0.148,-0.481L0.148,-0.731C0.148,-0.737 0.143,-0.742 0.137,-0.742L0.061,-0.742L0.061,-0.146C0.061,-0.065 0.127,-0 0.207,-0L0.308,-0L0.308,-0.072C0.308,-0.078 0.303,-0.083 0.297,-0.083Z" style="fill:rgb(235,246,71);fill-rule:nonzero;"/>
            </g>
            <g transform="matrix(12,0,0,12,85.2766,545.844)">
                <path d="M0.074,-0.268L0.388,-0.191C0.393,-0.19 0.397,-0.186 0.397,-0.181L0.397,-0.134C0.397,-0.101 0.368,-0.082 0.335,-0.082L0.063,-0.082C0.057,-0.082 0.052,-0.077 0.052,-0.071L0.052,-0L0.335,-0C0.416,-0 0.478,-0.047 0.478,-0.134L0.478,-0.223C0.478,-0.239 0.467,-0.253 0.451,-0.256L0.142,-0.329C0.137,-0.331 0.133,-0.335 0.133,-0.34L0.133,-0.369C0.133,-0.402 0.15,-0.418 0.183,-0.418L0.446,-0.418C0.452,-0.418 0.457,-0.423 0.457,-0.429L0.457,-0.5L0.183,-0.5C0.102,-0.5 0.046,-0.449 0.046,-0.368L0.046,-0.301C0.046,-0.285 0.058,-0.271 0.074,-0.268Z" style="fill:rgb(235,246,71);fill-rule:nonzero;"/>
            </g>
            <g transform="matrix(12,0,0,12,91.7566,545.844)">
                <path d="M0.139,-0.724L0.063,-0.724L0.063,-0.642C0.063,-0.636 0.068,-0.631 0.074,-0.631L0.15,-0.631L0.15,-0.713C0.15,-0.719 0.145,-0.724 0.139,-0.724ZM0.139,-0.5L0.063,-0.5L0.063,-0.011C0.063,-0.005 0.068,-0 0.074,-0L0.15,-0L0.15,-0.49C0.15,-0.496 0.145,-0.5 0.139,-0.5Z" style="fill:rgb(235,246,71);fill-rule:nonzero;"/>
            </g>
            <g transform="matrix(12,0,0,12,94.3486,545.844)">
                <path d="M0.052,-0.354L0.052,-0.146C0.052,-0.065 0.117,-0 0.198,-0L0.436,-0C0.454,-0 0.468,-0.014 0.468,-0.032L0.468,-0.75L0.392,-0.75C0.386,-0.75 0.381,-0.745 0.381,-0.739L0.381,-0.468C0.369,-0.485 0.344,-0.5 0.312,-0.5L0.196,-0.5C0.115,-0.5 0.052,-0.435 0.052,-0.354ZM0.139,-0.142L0.139,-0.358C0.139,-0.391 0.165,-0.417 0.198,-0.417L0.333,-0.417C0.358,-0.414 0.379,-0.393 0.381,-0.366L0.381,-0.093C0.381,-0.087 0.376,-0.083 0.37,-0.083L0.198,-0.083C0.165,-0.083 0.139,-0.109 0.139,-0.142Z" style="fill:rgb(235,246,71);fill-rule:nonzero;"/>
            </g>
            <g transform="matrix(12,0,0,12,100.697,545.844)">
                <path d="M0.206,-0L0.465,-0L0.465,-0.072C0.465,-0.078 0.46,-0.083 0.454,-0.083L0.206,-0.083C0.173,-0.083 0.147,-0.109 0.147,-0.142L0.147,-0.231C0.156,-0.219 0.17,-0.212 0.186,-0.212L0.46,-0.212C0.484,-0.212 0.486,-0.226 0.486,-0.243L0.486,-0.358C0.486,-0.451 0.421,-0.5 0.34,-0.5L0.206,-0.5C0.125,-0.5 0.06,-0.451 0.06,-0.358L0.06,-0.146C0.06,-0.065 0.125,-0 0.206,-0ZM0.206,-0.418L0.343,-0.418C0.382,-0.418 0.401,-0.399 0.401,-0.359L0.401,-0.305C0.401,-0.299 0.396,-0.294 0.39,-0.294L0.157,-0.294C0.151,-0.295 0.147,-0.299 0.147,-0.305L0.147,-0.359C0.147,-0.399 0.173,-0.418 0.206,-0.418Z" style="fill:rgb(235,246,71);fill-rule:nonzero;"/>
            </g>
        </g>
    </g>
</svg>
